<?xml version="1.0" encoding="utf-8"?>
<svg version="1.1" id="Layer_1" xmlns="http://www.w3.org/2000/svg" xmlns:xlink="http://www.w3.org/1999/xlink" x="0px" y="0px"
	 viewBox="0 0 900 900" style="enable-background:new 0 0 900 900;" xml:space="preserve">
<g>
	<path style="fill:#F74537;" d="M438.48,645.466L438.48,645.466c7.192-0.971-5.301-7.65-6.272-14.842l7.639-73.682l-11.845-87.757
		c-0.971-7.192-6.837-11.312-14.842-11.312l0,0l0,0H301.193l25.319,187.593H438.48z"/>
	<path style="fill:#BC3131;" d="M315.276,562.225l5.519,40.879l4.675,34.658h123.286c0.977-2.168,1.377-4.621,1.04-7.136
		l-3.715-27.522l-5.519-40.879H315.276z"/>
	<path style="fill:#962F2F;" d="M320.795,603.104l4.675,34.658h123.286c0.977-2.168,1.377-4.621,1.04-7.136l-3.715-27.522H320.795z"
		/>
	<path style="fill:#962F2F;" d="M311.671,634.154l-21.789-161.439c-0.971-7.192,4.12-13.871,11.312-14.842h0
		c7.192-0.971,13.871,4.12,14.842,11.312l21.79,161.44c0.971,7.192-4.12,13.871-11.312,14.842l0,0
		C319.32,646.437,312.641,641.346,311.671,634.154z"/>
	<g>
		<g>
			<rect x="386.293" y="656.269" style="fill:#C7C7CC;" width="15.349" height="90.532"/>
			<path style="fill:#9A92AE;" d="M401.643,661.538v20.46l-15.349,12.048v-31.838C390.135,662.026,397.528,661.719,401.643,661.538z
				"/>
		</g>
		<path style="fill:#3C3C47;" d="M500.628,663.589H334.283c-3.772,0-6.858-3.086-6.858-6.859l0,0c0-3.772,3.086-6.858,6.858-6.858
			h166.346c3.772,0,6.858,3.086,6.858,6.858l0,0C507.487,660.503,504.4,663.589,500.628,663.589z"/>
		<path style="fill:#BC3131;" d="M507.533,655.359H384.266c-9.432,0-17.149-7.717-17.149-17.149l0,0
			c0-9.432,7.717-17.149,17.149-17.149h123.267c9.432,0,17.149,7.717,17.149,17.149l0,0
			C524.681,647.642,516.964,655.359,507.533,655.359z"/>
		<path style="fill:#962F2F;" d="M393.825,655.816H330.77c-9.432,0-17.149-7.717-17.149-17.149v0
			c0-9.432,7.717-17.149,17.149-17.149h63.055c9.432,0,17.149,7.717,17.149,17.149v0
			C410.974,648.099,403.257,655.816,393.825,655.816z"/>
		<g>
			<g>
				<path style="fill:#494956;" d="M467.908,776.983h-9.602c0-11.471-9.333-20.804-20.804-20.804h-87.731
					c-11.471,0-20.804,9.333-20.804,20.804h-9.602c0-16.766,13.64-30.406,30.406-30.406h87.731
					C454.268,746.577,467.908,760.217,467.908,776.983z"/>
			</g>
			<rect x="382.663" y="732.174" style="fill:#494956;" width="22.404" height="14.631"/>
		</g>
		<g>
			<circle style="fill:#0E2244;" cx="323.8" cy="786.268" r="7.976"/>
			<path style="fill:#C7C7CC;" d="M335.302,785.564h-21.828v-2.005c0-6.028,4.886-10.914,10.914-10.914l0,0
				c6.028,0,10.914,4.886,10.914,10.914V785.564z"/>
			<circle style="fill:#0E2244;" cx="463.558" cy="786.268" r="7.976"/>
			<path style="fill:#C7C7CC;" d="M475.06,785.564h-21.828v-2.005c0-6.028,4.886-10.914,10.914-10.914h0
				c6.028,0,10.914,4.886,10.914,10.914V785.564z"/>
		</g>
		<rect x="387.962" y="749.549" style="fill:#494956;" width="12.71" height="28.806"/>
		<g>
			<circle style="fill:#0E2244;" cx="394.585" cy="786.268" r="7.976"/>
			<path style="fill:#C7C7CC;" d="M406.087,785.564h-21.828v-2.005c0-6.028,4.886-10.914,10.914-10.914h0
				c6.028,0,10.914,4.886,10.914,10.914V785.564z"/>
		</g>
	</g>
</g>
<g>
	<path style="fill:#968EAB;" d="M747.044,799.758H133.465c-4.837,0-8.794-3.957-8.794-8.794l0,0c0-4.836,3.957-8.794,8.794-8.794
		h613.579c4.836,0,8.794,3.957,8.794,8.794l0,0C755.838,795.801,751.881,799.758,747.044,799.758z"/>
	<g>
		<rect x="599.325" y="175.135" style="fill:#9C98AB;" width="36.238" height="18.948"/>
		<g>
			
				<ellipse transform="matrix(0.1602 -0.9871 0.9871 0.1602 384.9744 721.8568)" style="fill:#FFC550;" cx="616.708" cy="134.687" rx="35.469" ry="35.469"/>
			<rect x="598.596" y="152.799" style="fill:#FFC550;" width="37.733" height="24.674"/>
			<circle style="fill:#FFDB69;" cx="617.085" cy="135.441" r="26.79"/>
			<path style="fill:none;stroke:#FFFFFF;stroke-width:3.0186;stroke-linejoin:round;stroke-miterlimit:10;" d="M609.161,176.193
				l-10.377-49.053c0,0,5.849,6.603,10.943,5.471c5.094-1.132,6.415-9.999,1.698-9.811c-4.717,0.189-4.151,13.018,6.981,12.829
				c13.926-0.236,9.433-11.508,6.037-11.32c-5.305,0.295-5.66,11.32,2.83,11.508c8.49,0.189,11.509-8.113,11.509-8.113
				l-13.961,48.11"/>
			<path style="fill:#9C98AB;" d="M619.675,205.247h-5.558c-6.855,0-12.947-4.554-15.144-11.32l0,0h35.846l0,0
				C632.622,200.694,626.53,205.247,619.675,205.247z"/>
			<path style="fill:#FFC550;" d="M588.231,99.945L588.231,99.945c1.219-1.32,1.402-3.292,0.448-4.815l-12.514-19.974
				c-2.811-4.486-9.063-5.195-12.806-1.451l0,0c-3.521,3.521-3.138,9.336,0.815,12.364l18.709,14.336
				C584.517,101.656,586.835,101.457,588.231,99.945z"/>
			<path style="fill:#FFC550;" d="M572.394,123.273L572.394,123.273c0.013-1.796-1.179-3.379-2.909-3.863l-22.699-6.349
				c-5.098-1.426-10.199,2.258-10.448,7.546l0,0c-0.234,4.974,3.964,9.016,8.925,8.595l23.486-1.991
				C570.799,127.039,572.379,125.331,572.394,123.273z"/>
			<path style="fill:#FFC550;" d="M615.842,89.326L615.842,89.326c1.782-0.226,3.192-1.618,3.441-3.397l3.274-23.342
				c0.735-5.243-3.594-9.808-8.869-9.352l0,0c-4.961,0.429-8.409,5.127-7.333,9.988l5.096,23.013
				C611.897,88.246,613.8,89.585,615.842,89.326z"/>
			<path style="fill:#FFC550;" d="M642.075,100.421L642.075,100.421c1.523,0.953,3.495,0.769,4.814-0.45l17.313-15.994
				c3.889-3.592,3.428-9.867-0.943-12.854v0c-4.111-2.808-9.755-1.356-12,3.089l-10.626,21.039
				C639.705,97.088,640.33,99.329,642.075,100.421z"/>
			<path style="fill:#FFC550;" d="M659.958,118.636L659.958,118.636c0.575,1.702,2.219,2.808,4.012,2.699l23.527-1.42
				c5.284-0.319,8.901-5.468,7.407-10.547l0,0c-1.405-4.777-6.693-7.225-11.244-5.206l-21.545,9.559
				C660.234,114.555,659.299,116.686,659.958,118.636z"/>
		</g>
		<g>
			<g>
				<g>
					<path style="fill:#FFCCB4;" d="M612.375,284.5l5.827-24.643c0.372-1.573-0.611-3.164-2.183-3.535l-0.652-0.154
						c-1.573-0.372-3.164,0.611-3.535,2.183l-5.827,24.643c-0.372,1.573,0.611,3.164,2.183,3.535l0.652,0.154
						C610.412,287.055,612.003,286.073,612.375,284.5z"/>
					<path style="fill:#FFCCB4;" d="M613.084,293.035l8.098-18.794c0.639-1.484-0.052-3.221-1.536-3.861l-0.616-0.265
						c-1.484-0.639-3.222,0.052-3.861,1.536l-8.098,18.794c-0.64,1.484,0.052,3.221,1.536,3.861l0.616,0.265
						C610.707,295.21,612.445,294.519,613.084,293.035z"/>
					<path style="fill:#FFCCB4;" d="M607.383,294.644l-0.518-20.458c-0.041-1.615-1.396-2.904-3.012-2.863l-0.67,0.017
						c-1.615,0.041-2.904,1.396-2.863,3.012l0.518,20.458c0.041,1.615,1.396,2.904,3.012,2.863l0.67-0.017
						C606.135,297.614,607.424,296.259,607.383,294.644z"/>
					<path style="fill:#FFCCB4;" d="M616.586,300.636l9.445-22.171c0.633-1.487-0.065-3.221-1.552-3.855l-0.617-0.263
						c-1.487-0.633-3.221,0.065-3.855,1.552l-9.445,22.171c-0.633,1.487,0.065,3.221,1.552,3.855l0.617,0.263
						C614.218,302.821,615.952,302.123,616.586,300.636z"/>
					<path style="fill:#FFCCB4;" d="M620.275,306.391l9.445-22.171c0.633-1.487-0.065-3.221-1.552-3.855l-0.617-0.263
						c-1.487-0.633-3.221,0.065-3.855,1.551l-9.445,22.171c-0.633,1.487,0.065,3.221,1.552,3.855l0.617,0.263
						C617.907,308.576,619.642,307.878,620.275,306.391z"/>
				</g>
				<path style="fill:#FFCCB4;" d="M608.362,274.46c-0.099,0.243-1.575,2.839-3.184,5.647c-2.777,4.849-4.359,10.29-4.618,15.872
					l-0.496,10.689c0,0,16.946,3.056,17.432,2.458c11.862-14.6,7.564-24.217,7.564-24.217L608.362,274.46z"/>
			</g>
			<polygon style="fill:#FFFFFF;" points="595.317,305.804 598.859,296.753 624.832,307.772 619.323,318.003 			"/>
			<g>
				<path style="fill:#0C224B;" d="M624.438,314.461c0,0-22.756,55.691-22.825,55.881c-6.69,17.212-23.663,30.469-42.108,28.334
					c-2.764-0.32-9.655-2.103-12.593-3.148c-3.696-1.317-43.671-26.351-43.671-26.351l-4.756-45.417
					c0,0,49.331,34.571,52.178,36.371c4.874,3.082,11.446,4.475,14.035,3.488c4.551-1.669,6.578-3.765,8.847-7.587
					c11.207-18.805,21.776-54.156,21.776-54.156L624.438,314.461z"/>
			</g>
		</g>
		<path style="fill:#5B173A;" d="M498.212,737.07c-0.163,2.182-1.025,33.337-1.025,33.337l23.042,0.43l-0.511-39.05L498.212,737.07z
			"/>
		<path style="fill:#0C1640;" d="M487.595,525.276c-0.04,0.263-0.017,1.71,0.06,4.189c1.128,36.282,7.486,234.177,7.486,234.177
			l29.72-1.01l7.861-231.67L487.595,525.276z"/>
		<path style="fill:#656374;" d="M495.052,789.497l60.788,0.44c3.625,0.026,6.583-2.908,6.607-6.554l0,0
			c0.018-2.808-1.731-5.321-4.361-6.265l-30.007-10.77l-32.879,0.569L495.052,789.497z"/>
		<g>
			
				<line style="fill:none;stroke:#0C1640;stroke-width:1.4638;stroke-linecap:round;stroke-miterlimit:10;" x1="527.343" y1="775.288" x2="534.476" y2="767.612"/>
			
				<line style="fill:none;stroke:#0C1640;stroke-width:1.4638;stroke-linecap:round;stroke-miterlimit:10;" x1="532.575" y1="777.506" x2="539.708" y2="769.83"/>
			
				<line style="fill:none;stroke:#0C1640;stroke-width:1.4638;stroke-linecap:round;stroke-miterlimit:10;" x1="537.586" y1="780.475" x2="545.615" y2="771.771"/>
		</g>
		<path style="fill:#5B173A;" d="M446.049,736.69c-0.125,2.172-0.437,33.155-0.437,33.155l23.045,0.019l-1.199-38.807
			L446.049,736.69z"/>
		<path style="fill:#0C1640;" d="M431.703,526.354c-0.035,0.262,0.013,1.7,0.134,4.163c1.768,36.044,11.611,232.641,11.611,232.641
			l29.698-1.531l3.778-230.42L431.703,526.354z"/>
		<path style="fill:#777385;" d="M443.346,788.979l60.743,2.348c3.622,0.14,6.672-2.683,6.812-6.305l0,0
			c0.108-2.789-1.561-5.342-4.159-6.363l-29.648-11.646l-32.881-0.469L443.346,788.979z"/>
		<g>
			
				<line style="fill:none;stroke:#0C1640;stroke-width:1.4595;stroke-linecap:round;stroke-miterlimit:10;" x1="476.073" y1="775.875" x2="483.446" y2="768.472"/>
			
				<line style="fill:none;stroke:#0C1640;stroke-width:1.4595;stroke-linecap:round;stroke-miterlimit:10;" x1="481.232" y1="778.243" x2="488.605" y2="770.84"/>
			
				<line style="fill:none;stroke:#0C1640;stroke-width:1.4595;stroke-linecap:round;stroke-miterlimit:10;" x1="486.146" y1="781.351" x2="494.448" y2="772.955"/>
		</g>
		<path style="fill:#0C1640;" d="M534.315,520.028c0.639,6.61-1.129,12.895-4.581,17.994c-4.412,6.541-11.622,11.138-20.106,11.958
			l-45.922,4.437c-1.366,0.132-2.712,0.16-4.039,0.083c-3.417-0.154-6.692-0.966-9.695-2.304c-0.535-0.227-1.059-0.484-1.569-0.758
			c-7.952-4.143-13.721-12.106-14.648-21.694l-0.566-14.653l98.836-10.415L534.315,520.028z"/>
		<g>
			<path style="fill:#F7AC92;" d="M476.577,330.525l-9.687,1.1c-5.947,0.676-11.365-3.637-12.04-9.584l-4.136-36.41
				c-0.676-5.947,3.637-11.365,9.584-12.04l9.687-1.1c5.947-0.676,11.365,3.637,12.04,9.584l4.136,36.41
				C486.836,324.431,482.524,329.849,476.577,330.525z"/>
			<path style="fill:#EA8B34;" d="M524.365,235.637c0.032,0.737,0.048,1.475,0.05,2.213c-0.013,3.557-0.39,7.054-1.119,10.415
				c-3.103,14.388-12.464,26.559-25.221,33.346c-6.334,3.376-13.509,5.418-21.165,5.747c-12.393,0.533-22.475,6.526-31.477-0.621
				c-2.902-2.301-5.545-4.9-7.854-7.784c-0.908-1.136-1.771-2.29-2.576-3.491c-4.911-7.323-9.408-26.114-9.814-35.56
				c-1.146-26.637,18.916-49.273,45.201-51.594c0.751-0.063,1.502-0.11,2.254-0.142c16.695-0.718,31.804,6.889,41.342,19.152
				c0.016,0.014,0.016,0.014,0.016,0.014c2.792,3.602,5.104,7.616,6.842,11.926C522.885,224.339,524.117,229.861,524.365,235.637z"
				/>
			<g>
				<path style="fill:#FFC9C0;" d="M459.828,253.223c0.064,1.079-0.066,2.137-0.394,3.129c-0.364,1.188-0.982,2.477-1.814,3.423
					c-1.511,1.699-3.638,3.013-6.09,3.16l-5.267,0.319l-4.04,0.253l-0.76-11.988l0.015-0.002l-0.149-2.216l-0.107-1.721
					l-0.091-1.576l-0.031-0.407l0.014-0.002l9.292-0.571c2.348-0.149,4.537,0.631,6.221,2.011c1.021,0.839,1.849,1.92,2.413,3.134
					C459.501,251.115,459.763,252.129,459.828,253.223z"/>
				<path style="fill:#FFCCB4;" d="M522.845,240.937l1.203,19.385l0.183,2.902c0.129,1.91,0.097,3.823-0.045,5.676
					c-1.372,17.401-14.013,32.072-31.099,36.187c-0.512,0.146-1.044,0.251-1.562,0.339c-1.835,0.399-3.704,0.627-5.628,0.757
					c-1.866,0.124-3.691,0.096-5.512-0.035c-3.553-0.243-6.997-0.953-10.253-2.066c0,0-0.014,0.002-0.031-0.012
					c-14.181-4.838-24.988-17.212-27.222-32.485c-0.068-0.462-0.133-0.91-0.171-1.376c-0.09-0.534-0.124-1.088-0.157-1.642
					l-0.033-0.29l-0.09-1.312l-0.202-3.459l-0.761-11.87l0.001-0.118l-0.002-0.015l-0.133-2.203l-0.107-1.721l-0.091-1.576
					l-0.017-0.409c-0.15-2.745,0.101-5.447,0.612-8.06c0.335-1.831,0.807-3.632,1.358-5.369c0.07-0.287,0.145-0.531,0.233-0.79
					c0.454-1.432,1.012-2.862,1.635-4.225c-0.002-0.014,0.011-0.031,0.011-0.031c2.361-5.204,5.812-9.87,10.082-13.661
					c0.854-0.758,1.74-1.49,2.646-2.181c6.321-4.743,14.026-7.777,22.457-8.295c11.276-0.693,21.897,3.197,29.775,10.087
					c4.222,3.677,7.235,8.212,9.637,13.33c0.927,1.951,1.613,3.988,2.102,6.092C522.31,235.195,522.675,238.019,522.845,240.937z"/>
				<path style="fill:#FFC9C0;" d="M445.514,251.221l0.75,12.033l0.497,8.125l-3.194,0.202c-0.234,0.012-0.467,0.024-0.69,0.004
					c-5.366-0.036-9.902-4.412-10.245-9.75c-0.182-2.77,0.834-5.207,2.579-7.168c1.564-1.749,3.761-2.837,6.252-3.148l0.015-0.002
					c0.287-0.062,0.533-0.09,0.827-0.094L445.514,251.221z"/>
			</g>
			<path style="fill:#F7AC92;" d="M484.762,306.165c0,0-7.196,1.307-14.632-2.083c0,0-0.014,0.002-0.031-0.012
				c-14.181-4.838-24.988-17.212-27.222-32.485c-5.366-0.036-9.902-4.412-10.245-9.75c-0.182-2.77,0.834-5.207,2.579-7.168
				c1.564-1.749,3.761-2.837,6.252-3.148l-0.002-0.015l-0.133-2.203l-0.107-1.721l-0.091-1.576l-0.031-0.407l0.014-0.002
				c-0.15-2.745,0.101-5.447,0.612-8.06c5.134-3.683,10.652-4.897,14.607,1.601c0,0,0.033,3.14,0.295,7.899
				c0.185,3.563,0.486,8.024,0.992,12.74c1.014,9.697,2.824,20.464,6.065,26.751C470.586,299.946,484.762,306.165,484.762,306.165z"
				/>
			<path style="fill:#EA8B34;" d="M522.066,212.73l-66.974,7.608c-3.853,0.438-7.364-2.357-7.802-6.21l-0.182-1.599
				c-0.438-3.853,2.357-7.364,6.21-7.802l66.974-7.608c3.853-0.438,7.364,2.357,7.802,6.21l0.182,1.598
				C528.714,208.781,525.919,212.292,522.066,212.73z"/>
			<path style="fill:#EA8B34;" d="M536.218,217.531c1.038,3.444,0.188,6.916-1.814,9.431c-1.645,2.067-4.095,3.521-6.908,3.84
				l-59.611,6.772c-8.55,0.971-14.693,8.689-13.722,17.239l1.095,9.637c0.363,3.199-1.956,6.113-5.155,6.476l-1.378,0.156
				c-3.212,0.365-6.111-1.943-6.476-5.155l-3.298-29.033c-0.026-0.232-0.036-0.451-0.032-0.672
				c-1.287-1.499-2.149-3.399-2.386-5.487c-0.321-2.828,0.547-5.526,2.191-7.608c1.645-2.068,4.095-3.521,6.908-3.84l79.106-8.987
				C529.785,209.728,534.752,212.668,536.218,217.531z"/>
			<g>
				<path style="fill:#EA8B34;" d="M518.81,242.806l-13.28,1.509c-1.134,0.129-2.166-0.693-2.295-1.827l-0.053-0.47
					c-0.129-1.134,0.693-2.166,1.827-2.295l13.28-1.509c1.133-0.129,2.166,0.693,2.295,1.827l0.054,0.47
					C520.766,241.644,519.943,242.677,518.81,242.806z"/>
				<path style="fill:#EA8B34;" d="M487.631,246.348l-13.28,1.509c-1.134,0.129-2.166-0.693-2.295-1.827l-0.053-0.47
					c-0.129-1.134,0.693-2.166,1.827-2.295l13.28-1.509c1.134-0.129,2.166,0.693,2.295,1.827l0.053,0.47
					C489.586,245.186,488.764,246.219,487.631,246.348z"/>
				<path style="fill:#FFFFFF;" d="M492.939,278.865c2.34,2.692,5.196,3.493,8.285,3.302c3.684-0.228,7.63-2.336,8.549-5.414
					L492.939,278.865z"/>
				<path style="fill:#F7AC92;" d="M506.075,266.759c0.013,0.061-0.248,0.021-0.248,0.021c0.173,2.067-1.426,3.905-5.859,4.279
					l-2.364-16.174C502.997,260.332,505.368,263.429,506.075,266.759z"/>
			</g>
		</g>
		<path style="fill:#0E1032;" d="M435.742,541.353c0,0,40.38-4.379,39.894-5.838c-0.486-1.46-0.486-18.487-0.486-18.487
			s32.11-5.352,32.11-3.406c0,1.946,2.919,17.028,2.919,17.028l23.839-4.379l-0.487-25.299l-103.626,10.703L435.742,541.353z"/>
		<g>
			<g>
				
					<rect x="458.548" y="314.236" transform="matrix(0.9962 -0.087 0.087 0.9962 -33.6847 43.2922)" style="fill:#ECEDF0;" width="43.056" height="188.103"/>
			</g>
			<polygon style="fill:#DF3A37;" points="475.546,334.004 463.433,319.604 472.84,312.801 484.98,317.723 			"/>
			<polygon style="fill:#FFFFFF;" points="493.941,322.971 473.636,313.525 451.161,327.39 449.892,312.85 492.664,309.835 			"/>
			<g>
				<polygon style="fill:#9C98AB;" points="512.165,508.143 467.28,512.752 466.478,503.572 511.364,498.963 				"/>
			</g>
			
				<rect x="486.385" y="501.082" transform="matrix(0.9962 -0.087 0.087 0.9962 -42.1115 44.8911)" style="fill:#0C204B;" width="15.69" height="9.487"/>
		</g>
		<path style="fill:#0C224B;" d="M468.947,530.231c0,0-9.137,3.036-22.987,4.496c-5.035,0.54-10.698,0.876-16.77,0.774
			c-0.365,0-0.715-0.132-1.051-0.234l-9.808-129.037c-2.583-21.601-1.824-33.058-2.102-50.879c-0.044-2.452-0.102-5.021-0.19-7.75
			c-0.058-1.62,0.117-3.138,0.482-4.583c1.897-7.575,9.064-12.858,16.901-16.799c4.714-2.365,9.677-4.247,13.866-5.824
			c1.956-0.744,0.773-0.116,2.875-0.408L468.947,530.231z"/>
		<path style="fill:#0C224B;" d="M539.85,522.379l-7.969,0.744l-18.302,1.693c0,0-21.338-206.012-19.456-205.312
			c3.196,1.197,6.641,3.05,10.027,5.473c6.947,4.948,13.647,12.289,17.398,21.222c1.08,2.54,1.912,5.225,2.423,8.013
			c0.029,0.102,0.058,0.219,0.073,0.321C527.225,372.135,539.85,522.379,539.85,522.379z"/>
		
			<line style="fill:none;stroke:#9C98AB;stroke-width:1.4595;stroke-miterlimit:10;" x1="475.777" y1="334.734" x2="491.832" y2="502.579"/>
		<path style="fill:#2E3768;" d="M459.542,422.158c0.87,1.741-21.367-62.76-21.367-62.76l7.258-7.298l-12.849-25.856l17.053-11.369
			C449.637,314.876,458.082,419.239,459.542,422.158z"/>
		<path style="fill:#2E3768;" d="M503.127,421.393c-0.533,1.872,8.997-65.401,8.997-65.401l-8.107-6.058l6.016-24.046
			l-17.763-13.145C492.27,312.744,504.021,418.254,503.127,421.393z"/>
		<g>
			<path style="fill:#F7AC92;" d="M443.579,545.926c0.108-0.246,12.66-11.951,10.8-14.689c-3.098-4.559-7.309-9.258-11.647-12.98
				l-8.308-7.127c0,0-10.522,10.82-11.092,11.365c-7.921,7.578,10.271,19.711,10.271,19.711S441.159,551.421,443.579,545.926z"/>
		</g>
		<g>
			<path style="fill:#F7AC92;" d="M443.958,530.831l19.331,17.246c1.234,1.101,3.143,0.992,4.244-0.242l0.457-0.512
				c1.1-1.234,0.992-3.143-0.242-4.244l-19.331-17.246c-1.234-1.1-3.143-0.992-4.244,0.242l-0.457,0.512
				C442.616,527.821,442.724,529.731,443.958,530.831z"/>
		</g>
		<g>
			<path style="fill:#F7AC92;" d="M442.7,540.321l15.622,13.937c1.234,1.1,3.143,0.992,4.244-0.242l0.457-0.512
				c1.1-1.234,0.992-3.143-0.242-4.244l-15.622-13.937c-1.234-1.101-3.143-0.992-4.244,0.242l-0.457,0.512
				C441.358,537.311,441.467,539.221,442.7,540.321z"/>
		</g>
		<g>
			<path style="fill:#F7AC92;" d="M430.172,539.729l18.396,16.412c1.234,1.1,3.143,0.992,4.244-0.242l0.457-0.512
				c1.1-1.234,0.992-3.143-0.242-4.244l-18.396-16.412c-1.234-1.1-3.143-0.992-4.244,0.242l-0.457,0.512
				C428.829,536.719,428.938,538.628,430.172,539.729z"/>
		</g>
		<g>
			<path style="fill:#F7AC92;" d="M433.213,518.866l23.879,10.043c1.524,0.641,3.295-0.082,3.936-1.605l0.266-0.632
				c0.644-1.53-0.075-3.292-1.605-3.936l-23.879-10.043c-1.524-0.641-3.295,0.081-3.936,1.605l-0.266,0.632
				C430.967,516.454,431.689,518.225,433.213,518.866z"/>
		</g>
		<g>
			<polygon style="fill:#FFFFFF;" points="440.328,511.186 437.906,509.026 432.527,504.241 417.132,521.501 413.911,525.122 
				414.946,526.042 417.209,528.074 421.7,532.074 422.558,531.109 433.406,518.94 437.8,514.021 438.119,513.669 			"/>
		</g>
		<g>
			<path style="fill:#0C224B;" d="M431.271,356.223l-7.353-18.226l-2.009-1.707c-0.251,0.296-3.675,4.354-8.505,10.972
				c-4.122,5.655-9.284,13.189-14.38,21.862c-15.603,26.557-22.901,50.339-21.709,70.702c2.476,42.322,34.39,85.792,35.746,87.622
				l1.886-1.405l3.472-2.57l14.294-10.598l2.013-1.478l3.183-2.37l2.162-1.598c-0.256-0.357-27.292-37.339-29.185-69.574
				c-1.437-24.566,10.758-43.147,23.225-59.496C435.889,376.037,429.926,357.806,431.271,356.223z"/>
		</g>
		<polygon style="fill:#DF3A37;" points="472.128,328.166 475.777,444.928 487.453,459.888 495.116,444.198 477.966,328.166 		"/>
		<path style="fill:none;stroke:#0C1640;stroke-width:1.9162;stroke-linecap:round;stroke-miterlimit:10;" d="M477.92,259.324
			c0,0,2.196-4.423,6.29-4.647c4.094-0.224,6.066,2.779,6.066,2.779"/>
		<path style="fill:none;stroke:#0C1640;stroke-width:1.7466;stroke-linecap:round;stroke-miterlimit:10;" d="M507.271,255.244
			c0,0,1.334-4.612,4.741-4.879c3.406-0.267,5.882,2.881,5.882,2.881"/>
		<path style="fill:#595A70;" d="M636.638,179.589h-39.106c-1.49,0-2.71-1.219-2.71-2.71v-0.618c0-1.49,1.219-2.71,2.71-2.71h39.106
			c1.49,0,2.709,1.219,2.709,2.71v0.618C639.347,178.37,638.128,179.589,636.638,179.589z"/>
		<path style="fill:#595A70;" d="M636.638,189.123h-39.106c-1.49,0-2.71-1.219-2.71-2.71v-0.618c0-1.49,1.219-2.71,2.71-2.71h39.106
			c1.49,0,2.709,1.219,2.709,2.71v0.618C639.347,187.904,638.128,189.123,636.638,189.123z"/>
		<path style="fill:#595A70;" d="M636.638,198.656h-39.106c-1.49,0-2.71-1.219-2.71-2.709v-0.618c0-1.49,1.219-2.71,2.71-2.71
			h39.106c1.49,0,2.709,1.219,2.709,2.71v0.618C639.347,197.437,638.128,198.656,636.638,198.656z"/>
	</g>
	<g>
		<g>
			<g>
				<path style="fill:#0E254A;" d="M610.398,433.963L610.398,433.963c-4.357-4.647-3.98-11.817,0.843-16.015l0.546-0.475
					c4.823-4.198,12.264-3.835,16.621,0.812l0,0c4.357,4.647,3.98,11.817-0.843,16.015l-0.546,0.475
					C622.197,438.973,614.755,438.61,610.398,433.963z"/>
				<path style="fill:#F66438;" d="M619.652,456.514l-11.461,9.977l-32.543-34.706l11.461-9.977
					c7.941-6.913,19.331-7.831,28.171-3.034c2.233,1.208,4.298,2.776,6.111,4.709c4.489,4.788,6.543,10.879,6.236,16.863
					C627.304,446.328,624.62,452.188,619.652,456.514z"/>
				<path style="fill:#FFAC3D;" d="M609.297,445.471l-11.461,9.977l-22.188-23.663l11.461-9.977
					c7.941-6.913,19.331-7.831,28.171-3.034c1.519,3.348,2.18,6.955,1.992,10.529C616.949,435.285,614.266,441.145,609.297,445.471z
					"/>
			</g>
			<path style="fill:#323966;" d="M608.784,466.357c-3.457,3.087-13.674-2.071-22.821-11.541
				c-9.146-9.471-13.769-19.654-10.307-22.751c2.727-2.447,9.689,0.267,17.01,6.193c1.928,1.574,3.894,3.365,5.801,5.343
				c2.23,2.313,4.196,4.665,5.835,6.949C609.396,457.619,611.397,464.019,608.784,466.357z"/>
			<path style="fill:#FFFFFF;" d="M604.303,450.55c-2.648,2.917-7.153,3.75-10.803,1.763c-4.169-2.269-5.645-7.382-3.284-11.408
				c0.63-1.074,1.472-1.97,2.451-2.647c1.928,1.574,3.894,3.365,5.801,5.343C600.698,445.914,602.664,448.266,604.303,450.55z"/>
		</g>
		<polyline style="fill:none;stroke:#0E254A;stroke-width:4.647;stroke-miterlimit:10;" points="668.278,546.196 697.987,450.301 
			637.826,410.225 625.2,420.96 		"/>
		<g>
			<ellipse style="fill:#0E254A;" cx="637.036" cy="410.795" rx="7.397" ry="7.127"/>
			<path style="fill:#323966;" d="M640.734,410.795c0,1.968-1.656,3.564-3.698,3.564s-3.699-1.595-3.699-3.564
				c0-1.968,1.656-3.564,3.699-3.564S640.734,408.827,640.734,410.795z"/>
		</g>
		<path style="fill:#FFAC3D;" d="M698.184,558.344H621.65l0,0c0-8.397,6.807-15.205,15.205-15.205h46.124
			C691.376,543.139,698.184,549.947,698.184,558.344L698.184,558.344z"/>
		<rect x="637.43" y="539.338" style="fill:#0E254A;" width="13.808" height="4.181"/>
		<g>
			<ellipse style="fill:#0E254A;" cx="697.395" cy="451.278" rx="10.356" ry="9.978"/>
			<path style="fill:#323966;" d="M702.573,451.278c0,2.755-2.318,4.989-5.178,4.989c-2.86,0-5.178-2.234-5.178-4.989
				s2.318-4.989,5.178-4.989C700.255,446.289,702.573,448.523,702.573,451.278z"/>
		</g>
	</g>
	<g>
		<g>
			<path style="fill:#5E1F3F;" d="M740.983,536.095h-69.524V511.81h69.524c3.339,0,6.046,2.707,6.046,6.046v12.193
				C747.029,533.388,744.322,536.095,740.983,536.095z"/>
			<path style="fill:#5E1F3F;" d="M715.421,536.095h-69.524V511.81h69.524c3.339,0,6.046,2.707,6.046,6.046v12.193
				C721.466,533.388,718.76,536.095,715.421,536.095z"/>
			<path style="fill:#E8EAEC;" d="M712.043,532.758h-66.147v-18.527h66.147c2.86,0,5.179,2.319,5.179,5.179v8.168
				C717.222,530.44,714.904,532.758,712.043,532.758z"/>
			<rect x="726.739" y="521.396" style="fill:#FFFFFF;" width="15.977" height="1.757"/>
			<rect x="726.739" y="525.161" style="fill:#FFFFFF;" width="15.977" height="1.758"/>
		</g>
		<g>
			<path style="fill:#5E1F3F;" d="M752.371,493.119h-69.524v-24.285h69.524c3.339,0,6.046,2.707,6.046,6.046v12.193
				C758.417,490.413,755.71,493.119,752.371,493.119z"/>
			<path style="fill:#5E1F3F;" d="M726.809,493.119h-69.524v-24.285h69.524c3.339,0,6.046,2.707,6.046,6.046v12.193
				C732.854,490.413,730.148,493.119,726.809,493.119z"/>
			<path style="fill:#E8EAEC;" d="M724.32,490.672h-67.035v-19.415h67.035c2.86,0,5.179,2.319,5.179,5.179v9.057
				C729.499,488.353,727.181,490.672,724.32,490.672z"/>
			<rect x="736.223" y="476.504" style="fill:#E8EAEC;" width="19.544" height="8.627"/>
			<rect x="738.127" y="478.421" style="fill:#0E254A;" width="15.977" height="1.758"/>
			<rect x="738.127" y="481.297" style="fill:#0E254A;" width="15.977" height="1.758"/>
		</g>
		<g>
			<path style="fill:#0E254A;" d="M746.096,559.101h-69.524v-24.285h69.524c3.339,0,6.046,2.707,6.046,6.046v12.193
				C752.142,556.395,749.435,559.101,746.096,559.101z"/>
			<path style="fill:#0E254A;" d="M720.533,559.101h-69.524v-24.285h69.524c3.339,0,6.046,2.707,6.046,6.046v12.193
				C726.579,556.395,723.872,559.101,720.533,559.101z"/>
			<path style="fill:#E8EAEC;" d="M717.156,555.765h-66.147v-17.638h66.147c2.86,0,5.179,2.319,5.179,5.179v7.279
				C722.335,553.446,720.016,555.765,717.156,555.765z"/>
			<rect x="729.948" y="542.486" style="fill:#E8EAEC;" width="19.544" height="8.627"/>
			<rect x="731.851" y="544.403" style="fill:#0E254A;" width="15.977" height="1.758"/>
			<rect x="731.851" y="547.279" style="fill:#0E254A;" width="15.977" height="1.758"/>
		</g>
		<g>
			<path style="fill:#D04234;" d="M662.297,492.944v18.885h80.666c5.212,0,9.443-4.23,9.443-9.443c0-2.601-1.057-4.964-2.763-6.68
				c-1.716-1.705-4.079-2.763-6.68-2.763H662.297z"/>
			<path style="fill:#FA7C50;" d="M652.924,492.944v18.885h67.885c5.212,0,9.443-4.23,9.443-9.443c0-2.601-1.057-4.964-2.763-6.68
				c-1.716-1.705-4.079-2.763-6.68-2.763H652.924z"/>
			<path style="fill:#E8EAEC;" d="M652.924,496.181v12.108h65.338c3.345,0,6.054-2.708,6.054-6.054c0-1.672-0.68-3.183-1.77-4.284
				c-1.101-1.09-2.612-1.77-4.284-1.77H652.924z"/>
		</g>
		<g>
			
				<line style="fill:none;stroke:#968EAB;stroke-width:1.2781;stroke-miterlimit:10;" x1="657.278" y1="474.105" x2="727.157" y2="474.105"/>
			
				<line style="fill:none;stroke:#968EAB;stroke-width:1.2781;stroke-miterlimit:10;" x1="657.278" y1="478.153" x2="727.157" y2="478.153"/>
			
				<line style="fill:none;stroke:#968EAB;stroke-width:1.2781;stroke-miterlimit:10;" x1="657.278" y1="482.2" x2="727.157" y2="482.2"/>
			
				<line style="fill:none;stroke:#968EAB;stroke-width:1.2781;stroke-miterlimit:10;" x1="657.278" y1="486.248" x2="727.157" y2="486.248"/>
		</g>
		<g>
			
				<line style="fill:none;stroke:#968EAB;stroke-width:1.2781;stroke-miterlimit:10;" x1="645.843" y1="517.775" x2="716.141" y2="517.775"/>
			
				<line style="fill:none;stroke:#968EAB;stroke-width:1.2781;stroke-miterlimit:10;" x1="645.843" y1="521.822" x2="716.141" y2="521.822"/>
			
				<line style="fill:none;stroke:#968EAB;stroke-width:1.2781;stroke-miterlimit:10;" x1="645.843" y1="525.87" x2="716.141" y2="525.87"/>
			
				<line style="fill:none;stroke:#968EAB;stroke-width:1.2781;stroke-miterlimit:10;" x1="645.843" y1="529.917" x2="716.141" y2="529.917"/>
		</g>
		<g>
			
				<line style="fill:none;stroke:#968EAB;stroke-width:1.2781;stroke-miterlimit:10;" x1="651.169" y1="540.995" x2="721.466" y2="540.995"/>
			
				<line style="fill:none;stroke:#968EAB;stroke-width:1.2781;stroke-miterlimit:10;" x1="651.169" y1="545.042" x2="721.466" y2="545.042"/>
			
				<line style="fill:none;stroke:#968EAB;stroke-width:1.2781;stroke-miterlimit:10;" x1="651.169" y1="548.201" x2="721.466" y2="548.201"/>
			
				<line style="fill:none;stroke:#968EAB;stroke-width:1.2781;stroke-miterlimit:10;" x1="651.169" y1="552.248" x2="721.466" y2="552.248"/>
		</g>
	</g>
	<rect x="255.586" y="578.45" style="fill:#122F51;" width="20.45" height="221.543"/>
	<g>
		<g>
			<path style="fill:#FFA280;" d="M549.524,526.923l20.273,5.812c1.48,0.424,3.039-0.44,3.463-1.92l0,0
				c0.424-1.48-0.44-3.039-1.92-3.463l-20.273-5.812c-1.48-0.424-3.039,0.44-3.463,1.92l0,0
				C547.18,524.94,548.044,526.499,549.524,526.923z"/>
			<path style="fill:#FFA280;" d="M555.114,533.639l16.277,4.666c1.481,0.424,3.039-0.44,3.464-1.92l0,0
				c0.424-1.48-0.44-3.039-1.92-3.464l-16.277-4.666c-1.481-0.424-3.039,0.44-3.464,1.92l0,0
				C552.769,531.656,553.633,533.214,555.114,533.639z"/>
			<path style="fill:#FFA280;" d="M550.488,537.419l19.266,5.523c1.48,0.424,3.039-0.44,3.463-1.92l0,0
				c0.424-1.481-0.44-3.039-1.92-3.464l-19.266-5.523c-1.48-0.424-3.039,0.44-3.464,1.92l0,0
				C548.143,535.436,549.007,536.994,550.488,537.419z"/>
		</g>
		<g>
			<g>
				<path style="fill:#AFAAC4;" d="M623.902,557.254h-83.676c-5.474,0-9.091-5.69-6.768-10.647l29.184-62.259
					c2.544-5.428,7.999-8.895,13.994-8.895h77.037c3.991,0,6.628,4.149,4.935,7.763L623.902,557.254z"/>
				<g>
					<g>
						<path style="fill:#AFAAC4;" d="M540.536,557.467h-59.665c-2.41,0-4.381-1.971-4.381-4.381v0c0-2.41,1.971-4.381,4.381-4.381
							h59.665c2.41,0,4.381,1.971,4.381,4.381v0C544.917,555.496,542.946,557.467,540.536,557.467z"/>
					</g>
					<g>
						<rect x="510.574" y="551.609" style="fill:#0E254A;" width="8.521" height="2.556"/>
						<rect x="501.84" y="551.609" style="fill:#0E254A;" width="6.178" height="2.556"/>
					</g>
				</g>
				<path style="fill:#827C91;" d="M622.642,557.254H538.77c-3.011,0-5-3.13-3.722-5.856l31.429-67.049
					c2.544-5.428,7.999-8.895,13.994-8.895h77.037c3.991,0,6.628,4.149,4.934,7.763l-32.543,69.425
					C628.579,555.456,625.751,557.254,622.642,557.254z"/>
			</g>
			<path style="fill:#FFFFFF;" d="M604.319,521.132c-1.988,4.652-5.705,7.523-8.301,6.414c-2.596-1.11-3.089-5.78-1.101-10.432
				c1.988-4.652,5.705-7.523,8.301-6.414C605.814,511.81,606.307,516.48,604.319,521.132z"/>
		</g>
	</g>
	<rect x="355.281" y="578.45" style="fill:#827C91;" width="20.45" height="221.543"/>
	<rect x="616.875" y="578.446" style="fill:#827C91;" width="20.448" height="221.547"/>
	<rect x="716.567" y="578.446" style="fill:#827C91;" width="20.448" height="221.547"/>
	<polygon style="fill:#323966;" points="616.875,578.446 637.323,578.446 637.323,651.522 616.875,661.671 	"/>
	<polygon style="fill:#323966;" points="737.015,578.446 737.015,602.05 716.567,612.198 716.567,578.446 	"/>
	<polygon style="fill:#323966;" points="375.902,578.01 375.902,601.918 355.189,612.198 355.189,578.01 	"/>
	<g>
		<path style="fill:#323966;" d="M236.381,585.06h459.04v-17.486c0-5.598-4.538-10.136-10.136-10.136H246.517
			c-5.598,0-10.136,4.538-10.136,10.136V585.06z"/>
	</g>
	<g>
		<rect x="303.551" y="536.975" style="fill:#C4C4C9;" width="100.253" height="21.33"/>
		<rect x="357.706" y="536.732" style="fill:#E8EAEC;" width="46.363" height="21.815"/>
		<g>
			
				<line style="fill:none;stroke:#968EAB;stroke-width:1.5722;stroke-miterlimit:10;" x1="303.639" y1="540.901" x2="403.98" y2="540.901"/>
			
				<line style="fill:none;stroke:#968EAB;stroke-width:1.5722;stroke-miterlimit:10;" x1="303.639" y1="545.191" x2="403.98" y2="545.191"/>
			
				<line style="fill:none;stroke:#968EAB;stroke-width:1.5722;stroke-miterlimit:10;" x1="303.639" y1="549.481" x2="403.98" y2="549.481"/>
			
				<line style="fill:none;stroke:#968EAB;stroke-width:1.5722;stroke-miterlimit:10;" x1="303.639" y1="553.771" x2="403.98" y2="553.771"/>
		</g>
	</g>
	<g>
		<rect x="137.502" y="621.56" style="fill:#65354D;" width="138.602" height="177.568"/>
		<rect x="189.01" y="621.56" style="fill:#65354D;" width="147.353" height="177.568"/>
		<g>
			<rect x="198.437" y="634.565" style="fill:#FA7C50;" width="129.211" height="46.986"/>
			<rect x="198.437" y="689.7" style="fill:#FA7C50;" width="129.211" height="46.986"/>
			<rect x="198.437" y="744.836" style="fill:#FA7C50;" width="129.211" height="46.986"/>
		</g>
		<g>
			<path style="fill:#FFFFFF;" d="M285.716,660.575h-32.414c-1.354,0-2.462-1.108-2.462-2.462v-0.111
				c0-1.354,1.108-2.462,2.462-2.462h32.414c1.354,0,2.462,1.108,2.462,2.462v0.111C288.177,659.467,287.07,660.575,285.716,660.575
				z"/>
			<path style="fill:#FFFFFF;" d="M286.974,715.322h-32.414c-1.354,0-2.462-1.108-2.462-2.462v-0.111
				c0-1.354,1.108-2.462,2.462-2.462h32.414c1.354,0,2.462,1.108,2.462,2.462v0.111
				C289.436,714.214,288.328,715.322,286.974,715.322z"/>
			<path style="fill:#FFFFFF;" d="M286.974,770.069h-32.414c-1.354,0-2.462-1.108-2.462-2.462v-0.111
				c0-1.354,1.108-2.462,2.462-2.462h32.414c1.354,0,2.462,1.108,2.462,2.462v0.111
				C289.436,768.961,288.328,770.069,286.974,770.069z"/>
		</g>
	</g>
	<g>
		<g>
			<path style="fill:#FFAC3D;" d="M280.947,520.573v31.366h-26.202v-31.366c0-1.38,1.125-2.505,2.505-2.505h21.192
				C279.822,518.068,280.947,519.192,280.947,520.573z"/>
			<g>
				<path style="fill:#F66438;" d="M255.068,546.571c-0.342-0.196-8.385-4.907-9.103-13.159c-0.274-3.146,0.917-5.096,1.964-6.177
					c2.879-2.973,7.663-2.802,8.199-2.774l-0.209,3.829c-0.971-0.045-3.831,0.153-5.243,1.62c-0.72,0.748-1.011,1.785-0.891,3.17
					c0.546,6.279,7.127,10.128,7.193,10.167L255.068,546.571z"/>
			</g>
			<path style="fill:#D04234;" d="M274.476,538.038h-7.509c-2.603,0-4.713-2.11-4.713-4.713l0,0c0-2.603,2.11-4.713,4.713-4.713
				h7.509c2.603,0,4.713,2.11,4.713,4.713l0,0C279.19,535.928,277.079,538.038,274.476,538.038z"/>
		</g>
		<path style="fill:#F66438;" d="M268.702,551.938h-13.957v-31.366c0-1.38,1.125-2.505,2.505-2.505h0.844
			c0.038,1.636,0.486,14.149,4,23.16C265.149,549.075,267.872,551.388,268.702,551.938z"/>
	</g>
	<g>
		
			<line style="fill:none;stroke:#968EAB;stroke-width:1.2781;stroke-miterlimit:10;" x1="651.169" y1="540.995" x2="721.466" y2="540.995"/>
		
			<line style="fill:none;stroke:#968EAB;stroke-width:1.2781;stroke-miterlimit:10;" x1="651.169" y1="545.042" x2="721.466" y2="545.042"/>
		
			<line style="fill:none;stroke:#968EAB;stroke-width:1.2781;stroke-miterlimit:10;" x1="651.169" y1="548.201" x2="721.466" y2="548.201"/>
		
			<line style="fill:none;stroke:#968EAB;stroke-width:1.2781;stroke-miterlimit:10;" x1="651.169" y1="552.248" x2="721.466" y2="552.248"/>
	</g>
	<g>
		<g>
			<g>
				<polygon style="fill:#FFFFFF;" points="347.825,537.336 364.654,501.123 381.27,536.91 				"/>
				<rect x="334.405" y="501.336" style="fill:#FFFFFF;" width="30.249" height="34.936"/>
				<polygon style="fill:#323966;" points="318.854,537.336 334.192,501.549 350.807,537.336 				"/>
			</g>
			<g>
				<g>
					<rect x="346.76" y="505.809" style="fill:#968EAB;" width="15.125" height="1.491"/>
				</g>
				<g>
					<rect x="348.038" y="508.791" style="fill:#968EAB;" width="15.125" height="1.491"/>
				</g>
				<g>
					<path style="fill:#968EAB;" d="M356.416,532.924l-8.109-19.116l17.651,0.069l8.707,18.533L356.416,532.924z M350.222,515.049
						l7.023,16.556l15.416-0.376l-7.491-16.057L350.222,515.049z"/>
				</g>
			</g>
		</g>
		<g>
			
				<line style="fill:none;stroke:#968EAB;stroke-width:1.2984;stroke-miterlimit:10;" x1="351.18" y1="517.792" x2="367.338" y2="517.792"/>
			
				<line style="fill:none;stroke:#968EAB;stroke-width:1.2984;stroke-miterlimit:10;" x1="352.582" y1="521.28" x2="368.74" y2="521.28"/>
			
				<line style="fill:none;stroke:#968EAB;stroke-width:1.2984;stroke-miterlimit:10;" x1="353.736" y1="524.768" x2="369.894" y2="524.768"/>
			
				<line style="fill:none;stroke:#968EAB;stroke-width:1.2984;stroke-miterlimit:10;" x1="355.632" y1="528.256" x2="371.79" y2="528.256"/>
		</g>
		<g>
			
				<line style="fill:none;stroke:#968EAB;stroke-width:1.2984;stroke-miterlimit:10;" x1="362.524" y1="514.836" x2="370.033" y2="531.532"/>
			
				<line style="fill:none;stroke:#968EAB;stroke-width:1.2984;stroke-miterlimit:10;" x1="358.05" y1="514.916" x2="365.559" y2="531.612"/>
			
				<line style="fill:none;stroke:#968EAB;stroke-width:1.2984;stroke-miterlimit:10;" x1="353.654" y1="514.599" x2="361.086" y2="531.931"/>
		</g>
	</g>
	<g>
		<g>
			
				<rect x="723.457" y="475.057" transform="matrix(0.9847 0.1743 -0.1743 0.9847 99.0202 -118.7348)" style="fill:#4257A4;" width="4.26" height="58.794"/>
			
				<rect x="726.233" y="473.922" transform="matrix(0.9847 0.1743 -0.1743 0.9847 95.3002 -119.7548)" style="fill:#4257A4;" width="6.604" height="17.681"/>
		</g>
		<g>
			<polygon style="fill:#65354D;" points="715.567,541.165 711.322,540.809 716.235,482.22 718.804,478.472 720.481,482.576 			"/>
		</g>
		<g>
			<polygon style="fill:#122F51;" points="709.667,544.159 705.485,544.973 694.249,487.262 695.7,482.956 698.431,486.448 			"/>
		</g>
		<g>
			<polygon style="fill:#F66438;" points="719.068,557.583 700.859,557.583 694.889,509.377 725.039,509.377 			"/>
			<polygon style="fill:#FFAC3D;" points="725.934,557.583 707.725,557.583 705.038,509.377 731.904,509.377 			"/>
		</g>
	</g>
	<g>
		<g>
			<path style="fill:#4257A4;" d="M276.361,598.246v23.451h-72.8c-5.084,0-9.427-3.247-11.051-7.783
				c-0.436-1.228-0.68-2.557-0.68-3.948c0-3.227,1.309-6.16,3.43-8.291c2.131-2.121,5.064-3.43,8.301-3.43H276.361z"/>
			<path style="fill:#31477D;" d="M248.932,613.914v7.783h-45.371c-5.084,0-9.427-3.247-11.051-7.783H248.932z"/>
			<path style="fill:#0E254A;" d="M303.877,598.242V621.7l-72.799,0c-6.475,0-11.729-5.255-11.729-11.729
				c0-3.231,1.314-6.166,3.432-8.297c2.131-2.118,5.067-3.432,8.297-3.432L303.877,598.242z"/>
			<path style="fill:#E8EAEC;" d="M303.877,602.263v15.04l-69.636,0c-4.156,0-7.52-3.364-7.52-7.52c0-2.077,0.844-3.954,2.199-5.321
				c1.367-1.354,3.244-2.199,5.321-2.199L303.877,602.263z"/>
		</g>
		<g>
			<path style="fill:#FFAC3D;" d="M277.945,551.628v23.458l-72.799,0c-6.475,0-11.729-5.255-11.729-11.729
				c0-3.231,1.314-6.166,3.432-8.297c2.131-2.118,5.067-3.432,8.297-3.432L277.945,551.628z"/>
			<path style="fill:#FFD533;" d="M250.285,559.458v-7.783h-45.37c-5.084,0-9.427,3.247-11.051,7.783H250.285z"/>
			<path style="fill:#FA7C50;" d="M303.877,551.628v23.458l-72.799,0c-6.475,0-11.729-5.255-11.729-11.729
				c0-3.231,1.314-6.166,3.432-8.297c2.131-2.118,5.067-3.432,8.297-3.432L303.877,551.628z"/>
			<path style="fill:#E8EAEC;" d="M303.877,555.649v15.04l-69.636,0c-4.156,0-7.52-3.364-7.52-7.52c0-2.078,0.844-3.954,2.199-5.321
				c1.367-1.354,3.244-2.198,5.321-2.198L303.877,555.649z"/>
		</g>
		<g>
			<path style="fill:#A1CF3A;" d="M282.176,575.221v23.462h-72.8c-6.474,0-11.72-5.257-11.72-11.731c0-1.989,0.497-3.866,1.37-5.51
				c0.548-1.025,1.248-1.969,2.06-2.791c2.131-2.121,5.064-3.43,8.291-3.43H282.176z"/>
			<path style="fill:#709D2B;" d="M270.912,575.221v6.221h-71.887c0.548-1.025,1.248-1.969,2.06-2.791
				c2.131-2.121,5.064-3.43,8.291-3.43H270.912z"/>
			<path style="fill:#709D2B;" d="M270.912,598.693v-6.221h-71.887c0.548,1.025,1.248,1.969,2.06,2.791
				c2.131,2.121,5.064,3.43,8.291,3.43H270.912z"/>
			<path style="fill:#4E8530;" d="M318.165,575.221l0,23.458l-72.799,0c-6.475,0-11.729-5.255-11.729-11.729
				c0-3.231,1.314-6.166,3.432-8.297c2.131-2.118,5.067-3.432,8.297-3.432L318.165,575.221z"/>
			<path style="fill:#E8EAEC;" d="M318.165,579.243l0,15.039l-69.636,0c-4.156,0-7.52-3.364-7.52-7.52
				c0-2.077,0.844-3.954,2.199-5.321c1.367-1.354,3.244-2.198,5.321-2.198L318.165,579.243z"/>
		</g>
	</g>
	<g>
		<g>
			<path style="fill:#53803A;" d="M206.328,559.77c-9.74,13.263-29.279,15.464-29.279,15.464s-3.748-19.302,5.992-32.565
				c9.74-13.263,29.279-15.464,29.279-15.464S216.068,546.507,206.328,559.77z"/>
			<path style="fill:#3D6A3A;" d="M165.43,551.839c8.928,8.799,8.441,23.771,8.441,23.771s-14.963,0.705-23.891-8.095
				c-8.928-8.799-8.441-23.771-8.441-23.771S156.502,543.039,165.43,551.839z"/>
			<path style="fill:#63B259;" d="M187.559,545.183c1.814,16.355-11.073,31.205-11.073,31.205s-15.828-11.666-17.642-28.02
				c-1.814-16.355,11.073-31.205,11.073-31.205S185.745,528.828,187.559,545.183z"/>
		</g>
		<g>
			<polygon style="fill:#65354D;" points="186.351,621.573 152.459,621.573 141.346,572.125 197.463,572.125 			"/>
			<polygon style="fill:#A0533B;" points="199.13,621.573 165.238,621.573 160.237,572.125 210.242,572.125 			"/>
		</g>
	</g>
</g>
<g>
	<path style="fill:#4C79C1;" d="M337.78,585.06h433.477v-17.486c0-5.598-4.538-10.136-10.136-10.136H347.916
		c-5.598,0-10.136,4.538-10.136,10.136V585.06z"/>
</g>
</svg>
